<?xml version="1.0" encoding="iso-8859-1"?>
<!-- Generator: Adobe Illustrator 17.1.0, SVG Export Plug-In . SVG Version: 6.00 Build 0)  -->
<!DOCTYPE svg PUBLIC "-//W3C//DTD SVG 1.1//EN" "http://www.w3.org/Graphics/SVG/1.1/DTD/svg11.dtd">
<svg xmlns="http://www.w3.org/2000/svg" xmlns:xlink="http://www.w3.org/1999/xlink" version="1.1" id="Capa_1" x="0px" y="0px" viewBox="0 0 465.007 465.007" style="enable-background:new 0 0 465.007 465.007;" xml:space="preserve" width="512px" height="512px">
<g>
	<path d="M447.015,36.898c-3.124-1.664-6.806-2.507-10.942-2.507c-27.259,0-70.72,36.506-91.582,55.6   c-33.418-14.538-72.017-22.204-111.988-22.204s-78.57,7.666-111.988,22.204c-20.862-19.093-64.323-55.6-91.581-55.6   c-4.136,0-7.818,0.843-10.942,2.507C5.095,43.765-0.92,65.831,0.114,102.482c0.939,33.271,7.792,75.245,19.309,118.294   c0.142,55.84,12.345,101.332,36.274,135.234c34.943,49.504,94.429,74.605,176.807,74.605s141.864-25.101,176.807-74.605   c23.93-33.902,36.132-79.394,36.274-135.234c11.517-43.048,18.37-85.022,19.309-118.294   C465.927,65.831,459.912,43.766,447.015,36.898z M449.899,102.06c-0.914,32.377-7.681,73.494-19.056,115.775   c-0.171,0.635-0.257,1.291-0.257,1.948c0,129.945-66.645,195.832-198.083,195.832S34.421,349.728,34.421,219.783   c0-0.658-0.086-1.313-0.257-1.948c-11.375-42.282-18.142-83.398-19.056-115.775c-0.957-33.91,4.753-49.163,9.934-51.921   c0.918-0.489,2.265-0.747,3.893-0.747c12.08,0,41.591,14.391,85.005,54.949c2.227,2.08,5.491,2.606,8.258,1.332   c32.498-14.971,70.641-22.885,110.305-22.885s77.808,7.914,110.305,22.885c2.767,1.276,6.032,0.749,8.258-1.332   c43.414-40.558,72.925-54.949,85.006-54.949c1.628,0,2.975,0.258,3.893,0.747C445.146,52.897,450.856,68.15,449.899,102.06z" fill="#FFFFFF"/>
	<path d="M271.373,337.973c-16.248,0-29.648-12.417-31.214-28.26l21.55-13.156c2.231-1.362,3.592-3.788,3.592-6.401   c0-12.651-10.292-22.943-22.944-22.943H222.65c-12.651,0-22.944,10.292-22.944,22.943c0,2.614,1.361,5.04,3.592,6.401l21.55,13.156   c-1.566,15.843-14.966,28.26-31.214,28.26c-4.142,0-7.5,3.358-7.5,7.5s3.358,7.5,7.5,7.5c16.264,0,30.59-8.424,38.869-21.132   c8.279,12.707,22.605,21.132,38.869,21.132c4.142,0,7.5-3.358,7.5-7.5S275.515,337.973,271.373,337.973z M222.65,282.211h19.707   c3.061,0,5.722,1.74,7.048,4.282l-16.902,10.318l-16.902-10.318C216.928,283.951,219.589,282.211,222.65,282.211z" fill="#FFFFFF"/>
	<path d="M139.865,158.591c-28.14,0-51.034,22.894-51.034,51.034s22.894,51.034,51.034,51.034s51.034-22.894,51.034-51.034   S168.005,158.591,139.865,158.591z M139.865,245.659c-19.869,0-36.034-16.165-36.034-36.034s16.165-36.034,36.034-36.034   s36.034,16.165,36.034,36.034S159.734,245.659,139.865,245.659z" fill="#FFFFFF"/>
	<path d="M139.865,185.961c-4.142,0-7.5,3.358-7.5,7.5v32.327c0,4.142,3.358,7.5,7.5,7.5s7.5-3.358,7.5-7.5v-32.327   C147.365,189.319,144.007,185.961,139.865,185.961z" fill="#FFFFFF"/>
	<path d="M325.142,158.591c-28.14,0-51.034,22.894-51.034,51.034s22.894,51.034,51.034,51.034s51.034-22.894,51.034-51.034   S353.282,158.591,325.142,158.591z M325.142,245.659c-19.869,0-36.034-16.165-36.034-36.034s16.165-36.034,36.034-36.034   s36.034,16.165,36.034,36.034S345.011,245.659,325.142,245.659z" fill="#FFFFFF"/>
	<path d="M325.142,185.961c-4.142,0-7.5,3.358-7.5,7.5v32.327c0,4.142,3.358,7.5,7.5,7.5s7.5-3.358,7.5-7.5v-32.327   C332.642,189.319,329.284,185.961,325.142,185.961z" fill="#FFFFFF"/>
</g>
<g>
</g>
<g>
</g>
<g>
</g>
<g>
</g>
<g>
</g>
<g>
</g>
<g>
</g>
<g>
</g>
<g>
</g>
<g>
</g>
<g>
</g>
<g>
</g>
<g>
</g>
<g>
</g>
<g>
</g>
</svg>
